#!OML:ASF F:\VICON\USERDATA\INSTALL\rory3\rory3.ASF
:FULLY-SPECIFIED
:DEGREES
454
root 9.78446 17.744 11.5963 -0.541049 12.5709 7.04483
lowerback 11.8091 1.68042 -2.12278
upperback 0.523723 2.00543 0.847618
thorax -6.18175 1.05761 1.74803
lowerneck -22.795 4.90848 -7.03984
upperneck 36.581 9.68734 2.79487
head 16.4983 3.47605 4.41508
rclavicle -2.68359e-015 -1.59028e-015
rhumerus -35.5322 -23.7575 -66.1276
rradius 33.6673
rwrist 6.81646
rhand -16.1757 10.0348
rfingers 7.12502
rthumb 10.0306 -19.7062
lclavicle -2.68359e-015 -1.59028e-015
lhumerus -31.6126 15.4023 78.7013
lradius 29.6759
lwrist -5.68326
lhand -20.5653 26.3548
lfingers 7.12502
lthumb 5.79406 56.2555
rfemur -6.78736 7.71333 1.35937
rtibia 39.888
rfoot -11.2421 -7.05994
rtoes 8.95169
lfemur -2.61772 -4.76223 -20.704
ltibia 16.0526
lfoot -9.03741 -12.0467
ltoes -11.2284
455
root 9.85537 17.756 11.5948 -0.430055 12.7879 6.99381
lowerback 11.7666 1.63929 -2.20356
upperback 0.494729 1.93921 0.823607
thorax -6.18733 1.02747 1.78035
lowerneck -22.7474 4.93637 -6.93001
upperneck 36.5191 9.67512 2.7869
head 16.4627 3.48973 4.38468
rclavicle -8.64713e-015 1.59028e-014
rhumerus -35.5636 -23.5296 -66.6271
rradius 33.7326
rwrist 7.01905
rhand -15.9235 10.0874
rfingers 7.12502
rthumb 10.274 -19.6417
lclavicle -8.64713e-015 1.59028e-014
lhumerus -31.4717 15.1308 78.5738
lradius 29.9827
lwrist -5.83805
lhand -20.3952 26.1021
lfingers 7.12502
lthumb 5.95827 55.9984
rfemur -7.45933 7.65094 2.03001
rtibia 40.6316
rfoot -12.4467 -5.56191
rtoes 9.56981
lfemur -2.92891 -4.80683 -20.9108
ltibia 16.4555
lfoot -9.12416 -12.1622
ltoes -10.5352
456
root 9.92167 17.7619 11.5903 -0.414171 12.9382 6.74756
lowerback 11.8507 1.60162 -2.12167
upperback 0.436851 1.90123 0.870127
thorax -6.29285 1.00861 1.78706
lowerneck -22.6535 4.94059 -6.87981
upperneck 36.4644 9.65025 2.77642
head 16.4178 3.49025 4.3586
rclavicle -2.0276e-014 1.59028e-015
rhumerus -35.6961 -23.3327 -67.0368
rradius 33.8041
rwrist 7.32693
rhand -15.8443 10.2221
rfingers 7.12502
rthumb 10.3503 -19.5032
lclavicle -2.0276e-014 1.59028e-015
lhumerus -31.4705 14.7449 78.5069
lradius 30.4018
lwrist -5.68495
lhand -20.3839 25.9088
lfingers 7.12502
lthumb 5.96915 55.8047
rfemur -8.09113 7.64361 2.99501
rtibia 41.3533
rfoot -13.5466 -4.47398
rtoes 8.63248
lfemur -3.16475 -4.90634 -20.8904
ltibia 16.8021
lfoot -9.25314 -12.1474
ltoes -10.2768
457
root 9.98253 17.7626 11.5939 -0.522024 13.0955 6.47522
lowerback 11.8915 1.54879 -2.11906
upperback 0.507437 1.83761 0.972897
thorax -6.2412 0.977878 1.9049
lowerneck -22.731 4.90092 -6.9839
upperneck 36.3879 9.61412 2.82279
head 16.3896 3.47036 4.38754
rclavicle 4.53229e-014 1.27222e-014
rhumerus -35.6598 -23.0962 -67.4985
rradius 33.9374
rwrist 7.55121
rhand -15.5481 10.3222
rfingers 7.12502
rthumb 10.636 -19.3887
lclavicle 4.53229e-014 1.27222e-014
lhumerus -31.311 14.3402 78.5774
lradius 30.8702
lwrist -5.23956
lhand -20.6125 26.2413
lfingers 7.12502
lthumb 5.74846 56.1434
rfemur -8.53797 7.69739 4.09508
rtibia 42.0337
rfoot -14.6866 -3.78284
rtoes 6.93719
lfemur -3.2452 -5.19316 -20.844
ltibia 17.1776
lfoot -9.47139 -11.9681
ltoes -10.4609
458
root 10.0422 17.7649 11.6023 -0.563626 13.2785 6.38115
lowerback 11.8488 1.48831 -2.27594
upperback 0.586151 1.7395 1.00607
thorax -6.13472 0.933076 2.04718
lowerneck -22.9671 4.86189 -7.17768
upperneck 36.4267 9.58119 3.02328
head 16.4383 3.45311 4.51412
rclavicle -1.67973e-014 3.18055e-015
rhumerus -35.6115 -22.8283 -68.0283
rradius 34.1327
rwrist 7.70546
rhand -15.2328 10.4367
rfingers 7.12502
rthumb 10.9402 -19.2583
lclavicle -1.67973e-014 3.18055e-015
lhumerus -31.1247 14.0335 78.5711
lradius 31.3323
lwrist -4.92891
lhand -20.8411 26.8333
lfingers 7.12502
lthumb 5.52773 56.7412
rfemur -8.97828 7.58727 4.99893
rtibia 42.6645
rfoot -15.8002 -3.12114
rtoes 6.00657
lfemur -3.37239 -5.35788 -20.9738
ltibia 17.6092
lfoot -9.68644 -11.8931
ltoes -9.9182
459
root 10.0983 17.7628 11.6046 -0.534037 13.4672 6.38426
lowerback 11.8868 1.44698 -2.4902
upperback 0.591377 1.65403 0.991056
thorax -6.15163 0.897151 2.16653
lowerneck -23.0952 4.84668 -7.24065
upperneck 36.4627 9.55939 3.12482
head 16.4758 3.44582 4.57339
rclavicle 1.37161e-014 1.43125e-014
rhumerus -35.7224 -22.5919 -68.5017
rradius 34.3806
rwrist 7.77549
rhand -14.938 10.5755
rfingers 7.12502
rthumb 11.2245 -19.1042
lclavicle 1.37161e-014 1.43125e-014
lhumerus -31.0963 13.6345 78.5005
lradius 31.8632
lwrist -4.50501
lhand -20.8628 27.1326
lfingers 7.12502
lthumb 5.5068 57.041
rfemur -9.49847 7.35749 5.82159
rtibia 43.2674
rfoot -16.8517 -2.5805
rtoes 4.36421
lfemur -3.55455 -5.33929 -21.1709
ltibia 17.9866
lfoot -9.85693 -12.0571
ltoes -9.29579
460
root 10.1541 17.7618 11.6049 -0.456734 13.7363 6.37238
lowerback 11.9281 1.3679 -2.68613
upperback 0.554803 1.52192 1.00038
thorax -6.21149 0.839275 2.30904
lowerneck -23.1593 4.855 -7.14707
upperneck 36.4521 9.58565 3.00576
head 16.5004 3.44902 4.51465
rclavicle -8.34896e-015 3.97569e-015
rhumerus -35.7946 -22.3118 -68.9228
rradius 34.5413
rwrist 7.866
rhand -14.7042 10.7237
rfingers 7.12502
rthumb 11.45 -18.9437
lclavicle -8.34896e-015 3.97569e-015
lhumerus -31.1306 13.5852 78.3547
lradius 32.3842
lwrist -4.2613
lhand -20.2693 26.9927
lfingers 7.12502
lthumb 6.07986 56.8854
rfemur -10.0468 6.9516 6.65871
rtibia 43.82
rfoot -17.9147 -1.99721
rtoes 2.25054
lfemur -3.79913 -5.55388 -21.3576
ltibia 18.3497
lfoot -9.96287 -12.1075
ltoes -8.90779
461
root 10.2067 17.7646 11.6076 -0.3983 13.9513 6.35395
lowerback 11.9147 1.32348 -2.93051
upperback 0.564934 1.43177 1.02268
thorax -6.1945 0.802129 2.48679
lowerneck -23.1734 4.8447 -7.10106
upperneck 36.3928 9.57662 2.92958
head 16.4841 3.44218 4.4694
rclavicle 1.68967e-015 -1.19271e-014
rhumerus -35.8223 -22.0261 -69.3509
rradius 34.7026
rwrist 8.03436
rhand -14.6535 11.0394
rfingers 7.12502
rthumb 11.4989 -18.6252
lclavicle 1.68967e-015 -1.19271e-014
lhumerus -31.0517 13.593 78.2126
lradius 32.8852
lwrist -4.49957
lhand -19.1553 26.9529
lfingers 7.12502
lthumb 7.15528 56.8119
rfemur -10.5948 6.61651 7.53842
rtibia 44.322
rfoot -18.9247 -1.29737
rtoes 1.3214
lfemur -4.04278 -5.83342 -21.533
ltibia 18.7659
lfoot -10.1548 -12.0745
ltoes -8.4477
462
root 10.2551 17.7631 11.6139 -0.342234 14.2534 6.28455
lowerback 11.8507 1.24622 -3.14967
upperback 0.558572 1.30371 1.05738
thorax -6.16282 0.745814 2.67049
lowerneck -22.9725 4.83757 -7.0972
upperneck 36.1695 9.54954 2.86319
head 16.3305 3.43916 4.40891
rclavicle 5.36719e-015 1.66979e-014
rhumerus -35.8984 -21.7814 -69.7558
rradius 34.8448
rwrist 8.20467
rhand -14.7437 11.3676
rfingers 7.12502
rthumb 11.4119 -18.3019
lclavicle 5.36719e-015 1.66979e-014
lhumerus -30.9783 13.4424 78.0463
lradius 33.2707
lwrist -4.69378
lhand -18.5059 26.5571
lfingers 7.12502
lthumb 7.7821 56.3939
rfemur -11.0687 6.22918 8.52957
rtibia 44.7474
rfoot -19.7458 -0.407605
rtoes 0.779464
lfemur -4.32709 -6.01274 -21.6173
ltibia 19.2566
lfoot -10.4487 -12.222
ltoes -7.62601
463
root 10.3008 17.7585 11.6174 -0.223305 14.6634 6.2637
lowerback 11.8022 1.13022 -3.39924
upperback 0.540456 1.11946 1.08726
thorax -6.14734 0.663103 2.87561
lowerneck -22.9511 4.83726 -7.23158
upperneck 36.0773 9.54312 2.99067
head 16.2593 3.44448 4.47608
rclavicle -1.22253e-014 -1.19271e-014
rhumerus -35.8615 -21.6207 -70.1151
rradius 34.8353
rwrist 8.20548
rhand -14.7449 11.5872
rfingers 7.12502
rthumb 11.4108 -18.0823
lclavicle -1.22253e-014 -1.19271e-014
lhumerus -30.7631 13.278 77.9873
lradius 33.3955
lwrist -4.01351
lhand -19.2745 26.1442
lfingers 7.12502
lthumb 7.04015 56.0071
rfemur -11.5654 5.55525 9.46357
rtibia 45.1089
rfoot -20.4218 0.823031
rtoes 0.112633
lfemur -4.76385 -6.13616 -21.7357
ltibia 19.8835
lfoot -10.7864 -12.4787
ltoes -7.45738
